# This file uses centimeters as units for non-parametric coordinates.

mtllib cube.mtl
g default
v -0.500000 -0.500000 0.500000
v 0.500000 -0.500000 0.500000
v -0.500000 0.500000 0.500000
v 0.500000 0.500000 0.500000
v -0.500000 0.500000 -0.500000
v 0.500000 0.500000 -0.500000
v -0.500000 -0.500000 -0.500000
v 0.500000 -0.500000 -0.500000
vt 0.500000 0.500000
vt 0.999135 0.000865
vt 0.500000 0.500000
vt 0.500000 0.500000
vt 0.500000 0.500000
vt 0.999135 0.000865
vt 0.500000 0.500000
vt 0.999135 0.000865
vt 0.500000 0.000865
vt 0.999135 0.500000
vt 0.000865 0.000865
vt 0.500000 0.000865
vt 0.500000 0.999135
vt 0.999135 0.999135
vt 0.999135 0.500000
vt 0.500000 0.000865
vt 0.999135 0.500000
vt 0.500000 0.000865
vt 0.999135 0.500000
vt 0.500000 0.000865
vt 0.000865 0.500000
vt 0.999135 0.000865
vt 0.500000 0.500000
vt 0.999135 0.500000
vn 0.000000 0.000000 1.000000
vn 0.000000 0.000000 1.000000
vn 0.000000 0.000000 1.000000
vn 0.000000 0.000000 1.000000
vn 0.000000 1.000000 0.000000
vn 0.000000 1.000000 0.000000
vn 0.000000 1.000000 0.000000
vn 0.000000 1.000000 0.000000
vn 0.000000 0.000000 -1.000000
vn 0.000000 0.000000 -1.000000
vn 0.000000 0.000000 -1.000000
vn 0.000000 0.000000 -1.000000
vn 0.000000 -1.000000 0.000000
vn 0.000000 -1.000000 0.000000
vn 0.000000 -1.000000 0.000000
vn 0.000000 -1.000000 0.000000
vn 1.000000 0.000000 0.000000
vn 1.000000 0.000000 0.000000
vn 1.000000 0.000000 0.000000
vn 1.000000 0.000000 0.000000
vn -1.000000 0.000000 0.000000
vn -1.000000 0.000000 0.000000
vn -1.000000 0.000000 0.000000
vn -1.000000 0.000000 0.000000
s off
g pCube1
usemtl initialShadingGroup
f 1/23/1 2/20/2 4/22/3 3/17/4
f 3/3/5 4/18/6 6/6/7 5/15/8
f 5/5/9 6/16/10 8/8/11 7/10/12
f 7/7/13 8/9/14 2/2/15 1/19/16
f 2/21/17 8/11/18 6/12/19 4/4/20
f 7/13/21 1/1/22 3/24/23 5/14/24
